<svg version="1.1" id="Layer_1" xmlns="http://www.w3.org/2000/svg" xmlns:xlink="http://www.w3.org/1999/xlink" x="0px" y="0px"
	 width="100%" viewBox="0 0 1024 1024" enable-background="new 0 0 1024 1024" xml:space="preserve">
<path fill="#FEFEFE" opacity="1.000000" stroke="none" 
	d="
M475.000000,1025.000000 
	C316.666656,1025.000000 158.833328,1025.000000 1.000000,1025.000000 
	C1.000000,683.666687 1.000000,342.333344 1.000000,1.000000 
	C342.333344,1.000000 683.666687,1.000000 1025.000000,1.000000 
	C1025.000000,342.333344 1025.000000,683.666687 1025.000000,1025.000000 
	C841.833313,1025.000000 658.666687,1025.000000 475.000000,1025.000000 
M265.748230,640.939636 
	C265.748230,640.939636 265.705627,640.958740 265.975220,641.620422 
	C278.761108,659.987915 291.488922,678.396545 304.432129,696.652466 
	C305.592651,698.289307 308.080048,699.714172 310.069183,699.888062 
	C314.659729,700.289246 319.322815,699.860657 324.673584,699.507141 
	C325.054535,697.605103 325.754669,695.705017 325.766052,693.800781 
	C325.858337,678.303650 325.812073,662.805786 325.827667,647.308105 
	C325.839203,635.809753 325.881989,624.311401 325.906647,612.813049 
	C325.912354,610.149719 325.834869,607.542664 321.052246,608.045166 
	C317.382233,608.098755 313.712250,608.152283 309.277039,608.200867 
	C308.576141,610.058411 307.279907,611.911804 307.266754,613.774231 
	C307.139679,631.716614 307.258057,649.660706 307.178467,667.603699 
	C307.173950,668.620972 306.052673,669.633240 305.371765,670.646240 
	C305.371765,670.646240 305.378326,670.567078 305.286804,670.047668 
	C304.946442,669.675354 304.606049,669.303040 304.028870,668.268005 
	C293.453918,653.120911 282.878967,637.973877 272.236542,622.352478 
	C272.142181,622.020264 271.934937,621.789429 271.520599,621.547241 
	C271.520599,621.547241 271.432800,621.429504 271.274231,620.873779 
	C270.683441,620.132568 270.092621,619.391357 269.415863,618.630066 
	C269.415863,618.630066 269.396362,618.544006 269.267761,617.964050 
	C268.678589,617.192322 268.089417,616.420593 267.414398,615.630371 
	C267.414398,615.630371 267.396149,615.544495 267.246124,614.959900 
	C266.610016,614.211365 265.973877,613.462830 265.172638,612.812866 
	C265.172638,612.812866 265.295380,612.664795 265.261292,612.245972 
	C265.159302,611.958740 264.962128,611.772034 264.573883,611.522705 
	C264.573883,611.522705 264.439453,611.389526 264.230255,610.767395 
	C262.807983,609.901367 261.385742,609.035278 259.047638,608.034180 
	C254.304428,608.245911 249.561234,608.457642 244.033951,608.958496 
	C243.710999,610.019592 243.108017,611.080078 243.106003,612.141785 
	C243.053452,640.067444 243.036316,667.993347 243.145203,695.918640 
	C243.150345,697.238953 244.368622,698.554565 245.918747,700.057800 
	C249.277664,700.037964 252.636566,700.018127 256.629364,700.212830 
	C261.024719,700.956604 261.963104,698.660706 261.930573,694.777954 
	C261.791962,678.213440 261.850098,661.647217 261.837189,645.081665 
	C261.835083,642.385498 261.836884,639.689331 261.836884,636.280334 
	C263.135223,637.685486 263.881042,638.492676 264.707001,639.295044 
	C264.707001,639.295044 264.686798,639.372742 264.679291,639.724792 
	C264.754608,639.968628 264.912811,640.132263 265.312164,640.683105 
	C265.312164,640.683105 265.721741,640.958374 265.748230,640.939636 
M336.593750,291.639465 
	C336.593750,291.639465 336.510132,291.656433 335.966644,292.049774 
	C334.703033,296.458679 332.351929,300.864166 332.338043,305.277008 
	C332.108551,378.061615 332.164795,450.847168 332.207703,523.632507 
	C332.209137,526.086182 332.740479,528.539673 332.974060,531.772644 
	C335.437073,543.667786 345.156799,550.179932 356.902222,547.468628 
	C360.577484,546.620117 364.291534,545.304321 367.565125,543.454468 
	C388.389069,531.686890 409.167023,519.833130 429.795380,507.727081 
	C436.010681,504.079559 440.248077,498.569397 441.288330,490.783569 
	C441.413330,490.546783 441.371216,490.344849 441.541046,489.288513 
	C441.484497,470.482483 441.427917,451.676483 441.663330,432.219147 
	C441.563965,431.527954 441.464600,430.836761 441.551147,429.223999 
	C441.534515,418.374817 441.517914,407.525604 442.079620,396.581329 
	C442.465912,396.829712 442.930054,397.007690 443.227386,397.336517 
	C462.098389,418.205719 480.864655,439.170502 499.841400,459.942993 
	C517.134644,478.872681 534.588318,497.657288 552.105774,516.379944 
	C559.829102,524.634583 567.518616,532.985168 575.904419,540.535889 
	C582.896118,546.831360 591.104614,548.199219 600.479248,544.483765 
	C621.193298,536.274170 642.199585,528.803345 663.057434,520.953491 
	C665.799561,519.921509 668.370789,518.435486 671.695068,516.985962 
	C679.807434,511.035461 682.644836,502.731812 682.635193,493.020660 
	C682.589050,446.693390 682.603027,400.365997 682.606628,354.038666 
	C682.608398,331.041534 682.354065,308.039886 682.724487,285.048492 
	C683.122986,260.315674 657.297485,252.200836 641.781799,262.055176 
	C622.964355,274.006561 603.302734,284.629242 584.001160,295.817841 
	C576.453430,300.193024 572.381287,306.760803 572.343384,315.444000 
	C572.238586,339.440186 572.302490,363.437500 572.450134,387.433472 
	C572.461060,389.217377 573.214233,391.406555 574.393799,392.708099 
	C583.119141,402.335480 592.104126,411.726746 600.886902,421.302826 
	C622.509033,444.878052 644.097534,468.484344 665.632935,492.138794 
	C673.054199,500.290283 673.811829,506.120514 668.527649,514.748047 
	C648.159668,492.511841 627.767090,470.298126 607.429443,448.034210 
	C576.757446,414.457123 546.185364,380.788544 515.450623,347.269073 
	C497.210846,327.376617 478.752472,307.684387 460.367645,287.925171 
	C453.006378,280.013550 445.933105,271.785645 438.064545,264.410278 
	C432.177216,258.891998 424.755676,255.840469 416.428864,258.714233 
	C401.168060,263.981079 385.968964,269.432251 370.808228,274.981598 
	C361.148102,278.517517 351.603363,282.368622 341.366699,286.222198 
	C339.779938,287.999817 338.193176,289.777466 336.593750,291.639465 
M641.180237,676.077942 
	C646.487671,677.177246 650.090698,675.211853 652.312195,670.242004 
	C653.252747,668.137695 654.764343,666.288757 656.016113,664.323547 
	C661.757690,655.308899 667.499207,646.294067 674.005859,636.078064 
	C674.005859,655.168213 674.000427,672.758423 674.007812,690.348633 
	C674.012695,702.042114 673.305969,699.882812 683.415771,700.051941 
	C684.581177,700.071472 685.771240,699.906067 686.908569,700.086609 
	C691.274658,700.780029 692.218140,698.684570 692.201294,694.698853 
	C692.095581,669.719788 692.303406,644.739258 692.187561,619.760254 
	C692.125549,606.399597 694.193848,608.398376 680.634521,607.881653 
	C675.854370,607.699524 673.023499,609.254883 670.498108,613.274414 
	C662.104126,626.634399 653.345154,639.765259 644.493652,653.340637 
	C636.651794,641.388855 628.490784,630.206726 621.740845,618.229309 
	C617.106262,610.005493 611.461304,606.743713 602.200378,607.804321 
	C597.631958,608.327454 595.861328,609.255371 595.913269,614.208435 
	C596.166443,638.353027 596.058899,662.501526 596.042053,686.648682 
	C596.032471,700.373718 596.000244,700.233765 609.818176,700.196899 
	C613.555176,700.186890 614.287659,698.718872 614.228394,695.462280 
	C614.076904,687.138367 614.169006,678.809998 614.167480,670.483398 
	C614.165405,659.279419 614.166992,648.075439 614.166992,636.282654 
	C623.183167,649.847778 631.802307,662.815613 641.180237,676.077942 
M514.598206,698.107788 
	C519.029724,695.708618 520.093506,692.504272 518.007507,687.366333 
	C516.198975,682.911743 513.022339,684.882507 510.028259,685.734497 
	C503.085876,687.709656 496.096436,689.054565 488.884155,687.044128 
	C481.553192,685.000549 477.583496,680.416199 477.217102,673.090454 
	C490.192993,673.090454 503.154144,673.115967 516.115112,673.078308 
	C521.544067,673.062561 522.942322,671.641663 523.043823,666.351624 
	C523.460388,644.647156 509.506409,631.878540 487.717834,634.026428 
	C473.148315,635.462646 462.328552,645.684448 459.400146,660.779053 
	C456.329315,676.607788 462.343353,690.788452 475.477753,697.254883 
	C487.981750,703.410950 500.920654,702.744568 514.598206,698.107788 
M342.138702,689.304077 
	C355.845703,704.984802 383.318878,705.698242 395.828247,690.698303 
	C406.155975,678.314392 406.285431,656.533081 396.100494,644.893921 
	C385.386688,632.650391 364.570831,629.920288 350.418304,638.902405 
	C334.318024,649.120667 330.503174,671.058716 342.138702,689.304077 
M737.110840,687.715027 
	C726.285156,685.421570 722.346252,681.749268 721.569824,673.030762 
	C723.078003,673.030762 724.567810,673.030151 726.057617,673.030945 
	C737.719177,673.036926 749.380737,673.025391 761.042175,673.061829 
	C763.907837,673.070801 766.652771,672.752747 766.982849,669.226929 
	C768.352417,654.597717 762.473938,638.526245 745.304504,634.566711 
	C723.239136,629.478149 704.539612,643.272766 703.098938,665.798096 
	C702.018799,682.686584 710.839966,695.558289 726.919250,699.925781 
	C738.028931,702.943481 749.045166,701.904541 759.738831,697.744324 
	C763.427307,696.309326 764.409607,692.503845 762.613037,687.640015 
	C761.254333,683.961487 758.638672,684.674744 755.626282,685.249451 
	C749.785767,686.363708 743.853943,686.999390 737.110840,687.715027 
M578.902100,647.059570 
	C580.191895,638.769653 580.039734,638.488953 571.875977,635.922485 
	C569.817932,635.275513 567.716431,634.602051 565.588257,634.370789 
	C555.526489,633.277100 545.481384,632.960938 536.922424,639.635498 
	C526.954285,647.408997 527.625549,661.120117 538.290466,667.736877 
	C541.355713,669.638733 544.885620,670.847900 548.297058,672.121338 
	C552.492554,673.687500 557.020874,674.539612 560.945068,676.584045 
	C563.063171,677.687500 565.644714,680.802673 565.419495,682.702332 
	C565.185303,684.678284 562.098083,687.137268 559.773865,687.891235 
	C552.604980,690.216614 545.635132,688.151184 538.916504,685.453735 
	C535.839783,684.218567 532.740173,682.812012 530.737122,686.687256 
	C528.207764,691.580933 529.638550,695.988159 534.208740,697.792847 
	C544.037720,701.674316 554.231567,702.749084 564.596069,700.713013 
	C575.613892,698.548645 582.556946,691.584961 583.169128,682.643372 
	C583.805054,673.354431 579.275452,667.470215 567.867798,663.229126 
	C562.898743,661.381775 557.609314,660.319031 552.797913,658.159180 
	C550.630310,657.186157 549.276611,654.399841 547.553650,652.436279 
	C549.649963,650.619263 551.751526,647.268555 553.841614,647.275757 
	C559.865479,647.296326 565.970032,648.303284 571.870300,649.668579 
	C574.874939,650.363953 576.975830,650.613281 578.902100,647.059570 
M417.133148,657.543213 
	C417.119781,664.708435 417.062073,671.873840 417.102051,679.038757 
	C417.191711,695.119934 424.679260,702.184509 440.746490,701.248779 
	C443.888336,701.065857 447.057190,700.614990 450.100647,699.842712 
	C451.272156,699.545410 452.706482,698.170227 453.034058,697.008057 
	C454.972046,690.132385 452.806458,687.502380 445.787720,687.796082 
	C438.655579,688.094543 435.016174,685.729614 434.731873,679.299194 
	C434.292938,669.370483 434.616241,659.408081 434.616241,648.748657 
	C439.785278,648.748657 444.587463,648.993591 449.353424,648.683167 
	C454.662323,648.337463 453.476562,644.002686 453.640320,640.682190 
	C453.796783,637.508545 452.609100,635.690491 448.977173,635.860901 
	C444.365448,636.077332 439.735870,635.913330 434.674164,635.913330 
	C434.674164,629.611694 434.625000,623.825500 434.693176,618.040649 
	C434.732025,614.744507 433.581329,613.349976 430.136261,614.469238 
	C427.130859,615.445679 424.076172,616.320312 420.986969,616.973938 
	C418.227600,617.557800 417.079315,618.968140 417.170898,621.810425 
	C417.318573,626.393372 417.210541,630.984558 417.210541,634.746948 
	C412.920746,637.719238 405.882904,632.514343 405.633545,640.777039 
	C405.565369,643.037048 405.450104,646.752808 406.583038,647.311035 
	C409.635437,648.814941 413.349304,648.976257 417.132050,649.737122 
	C417.132050,651.930969 417.132050,654.245667 417.133148,657.543213 
z"/>
<path fill="#1957AD" opacity="1.000000" stroke="none" 
	d="
M671.021179,517.159668 
	C668.370789,518.435486 665.799561,519.921509 663.057434,520.953491 
	C642.199585,528.803345 621.193298,536.274170 600.479248,544.483765 
	C591.104614,548.199219 582.896118,546.831360 575.904419,540.535889 
	C567.518616,532.985168 559.829102,524.634583 552.105774,516.379944 
	C534.588318,497.657288 517.134644,478.872681 499.841400,459.942993 
	C480.864655,439.170502 462.098389,418.205719 443.227386,397.336517 
	C442.930054,397.007690 442.465912,396.829712 441.642700,396.247559 
	C438.088623,392.072449 435.159790,388.058228 431.821075,384.420258 
	C418.571838,369.983551 405.190308,355.668304 391.866852,341.299683 
	C387.012878,336.064941 382.208252,330.784332 377.338898,325.564056 
	C365.566589,312.943298 353.769379,300.345825 341.987549,287.463562 
	C341.997589,286.818268 342.002258,286.448334 342.006897,286.078400 
	C351.603363,282.368622 361.148102,278.517517 370.808228,274.981598 
	C385.968964,269.432251 401.168060,263.981079 416.428864,258.714233 
	C424.755676,255.840469 432.177216,258.891998 438.064545,264.410278 
	C445.933105,271.785645 453.006378,280.013550 460.367645,287.925171 
	C478.752472,307.684387 497.210846,327.376617 515.450623,347.269073 
	C546.185364,380.788544 576.757446,414.457123 607.429443,448.034210 
	C627.767090,470.298126 648.159668,492.511841 668.897705,515.233276 
	C669.852234,516.198914 670.436707,516.679321 671.021179,517.159668 
z"/>
<path fill="#08367F" opacity="1.000000" stroke="none" 
	d="
M341.982208,287.738953 
	C353.769379,300.345825 365.566589,312.943298 377.338898,325.564056 
	C382.208252,330.784332 387.012878,336.064941 391.866852,341.299683 
	C405.190308,355.668304 418.571838,369.983551 431.821075,384.420258 
	C435.159790,388.058228 438.088623,392.072449 441.353577,396.295105 
	C441.517914,407.525604 441.534515,418.374817 441.320190,429.884460 
	C441.183258,431.320068 441.277313,432.095276 441.371338,432.870453 
	C441.427917,451.676483 441.484497,470.482483 441.262024,489.855774 
	C440.904663,490.628357 440.923889,490.824066 441.040680,491.010162 
	C440.248077,498.569397 436.010681,504.079559 429.795380,507.727081 
	C409.167023,519.833130 388.389069,531.686890 367.565125,543.454468 
	C364.291534,545.304321 360.577484,546.620117 356.902222,547.468628 
	C345.156799,550.179932 335.437073,543.667786 333.253174,531.059387 
	C333.649384,528.532410 333.868347,526.718628 333.868866,524.904907 
	C333.886566,460.302795 333.767853,395.700317 333.980316,331.098907 
	C334.023621,317.938263 331.906189,304.555573 336.510132,291.656433 
	C336.510132,291.656433 336.593750,291.639465 336.932861,291.599060 
	C338.842010,290.285400 340.412109,289.012177 341.982208,287.738953 
z"/>
<path fill="#0FB0CC" opacity="1.000000" stroke="none" 
	d="
M671.358154,517.072876 
	C670.436707,516.679321 669.852234,516.198914 669.159851,515.454346 
	C673.811829,506.120514 673.054199,500.290283 665.632935,492.138794 
	C644.097534,468.484344 622.509033,444.878052 600.886902,421.302826 
	C592.104126,411.726746 583.119141,402.335480 574.393799,392.708099 
	C573.214233,391.406555 572.461060,389.217377 572.450134,387.433472 
	C572.302490,363.437500 572.238586,339.440186 572.343384,315.444000 
	C572.381287,306.760803 576.453430,300.193024 584.001160,295.817841 
	C603.302734,284.629242 622.964355,274.006561 641.781799,262.055176 
	C657.297485,252.200836 683.122986,260.315674 682.724487,285.048492 
	C682.354065,308.039886 682.608398,331.041534 682.606628,354.038666 
	C682.603027,400.365997 682.589050,446.693390 682.635193,493.020660 
	C682.644836,502.731812 679.807434,511.035461 671.358154,517.072876 
z"/>
<path fill="#0AAECB" opacity="1.000000" stroke="none" 
	d="
M640.800842,675.930725 
	C631.802307,662.815613 623.183167,649.847778 614.166992,636.282654 
	C614.166992,648.075439 614.165405,659.279419 614.167480,670.483398 
	C614.169006,678.809998 614.076904,687.138367 614.228394,695.462280 
	C614.287659,698.718872 613.555176,700.186890 609.818176,700.196899 
	C596.000244,700.233765 596.032471,700.373718 596.042053,686.648682 
	C596.058899,662.501526 596.166443,638.353027 595.913269,614.208435 
	C595.861328,609.255371 597.631958,608.327454 602.200378,607.804321 
	C611.461304,606.743713 617.106262,610.005493 621.740845,618.229309 
	C628.490784,630.206726 636.651794,641.388855 644.493652,653.340637 
	C653.345154,639.765259 662.104126,626.634399 670.498108,613.274414 
	C673.023499,609.254883 675.854370,607.699524 680.634521,607.881653 
	C694.193848,608.398376 692.125549,606.399597 692.187561,619.760254 
	C692.303406,644.739258 692.095581,669.719788 692.201294,694.698853 
	C692.218140,698.684570 691.274658,700.780029 686.908569,700.086609 
	C685.771240,699.906067 684.581177,700.071472 683.415771,700.051941 
	C673.305969,699.882812 674.012695,702.042114 674.007812,690.348633 
	C674.000427,672.758423 674.005859,655.168213 674.005859,636.078064 
	C667.499207,646.294067 661.757690,655.308899 656.016113,664.323547 
	C654.764343,666.288757 653.252747,668.137695 652.312195,670.242004 
	C650.090698,675.211853 646.487671,677.177246 640.800842,675.930725 
z"/>
<path fill="#08367F" opacity="1.000000" stroke="none" 
	d="
M244.818024,608.669434 
	C249.561234,608.457642 254.304428,608.245911 259.582733,608.419006 
	C261.558350,609.665771 262.998901,610.527649 264.439453,611.389526 
	C264.439453,611.389526 264.573883,611.522705 264.553558,611.843140 
	C264.644104,612.547852 264.898132,612.714905 265.295380,612.664795 
	C265.295380,612.664795 265.172638,612.812866 265.208130,613.111511 
	C265.961151,614.121582 266.678650,614.833069 267.396149,615.544495 
	C267.396149,615.544495 267.414398,615.630371 267.367188,615.984131 
	C268.012146,617.073242 268.704254,617.808594 269.396362,618.544006 
	C269.396362,618.544006 269.415863,618.630066 269.371460,618.987549 
	C270.028961,620.039795 270.730896,620.734680 271.432800,621.429504 
	C271.432800,621.429504 271.520599,621.547241 271.515747,621.869141 
	C271.775269,622.402893 272.039642,622.614868 272.303986,622.826782 
	C282.878967,637.973877 293.453918,653.120911 303.935120,668.738403 
	C304.353699,669.661621 304.866028,670.114319 305.378326,670.567078 
	C305.378326,670.567078 305.371765,670.646240 305.354614,671.017578 
	C306.550751,673.739014 307.819427,673.246521 308.538361,671.197205 
	C309.011536,669.848328 308.872711,668.257324 308.874146,666.774658 
	C308.890747,649.677368 308.835907,632.579773 308.931213,615.483032 
	C308.944763,613.055359 309.654633,610.631470 310.042236,608.205811 
	C313.712250,608.152283 317.382233,608.098755 321.623352,608.472046 
	C322.840942,610.507324 324.047638,612.114563 324.050751,613.724182 
	C324.106201,642.405518 324.015594,671.087097 323.956451,699.768677 
	C319.322815,699.860657 314.659729,700.289246 310.069183,699.888062 
	C308.080048,699.714172 305.592651,698.289307 304.432129,696.652466 
	C291.488922,678.396545 278.761108,659.987915 266.007751,641.249146 
	C265.934113,640.904663 265.827942,640.931519 265.721741,640.958374 
	C265.721741,640.958374 265.312164,640.683105 265.344116,640.248291 
	C265.296875,639.432251 265.067108,639.285339 264.686798,639.372742 
	C264.686798,639.372742 264.707001,639.295044 264.722290,638.934082 
	C263.774567,637.329346 262.811584,636.085571 261.848572,634.841858 
	C260.479340,637.290039 260.155487,639.213196 260.151306,641.136963 
	C260.113220,658.612549 260.025665,676.089539 260.221710,693.563110 
	C260.260559,697.025269 259.423370,699.170898 255.995483,699.998291 
	C252.636566,700.018127 249.277664,700.037964 245.433716,699.505981 
	C244.905121,668.859253 244.861572,638.764282 244.818024,608.669434 
z"/>
<path fill="#0C3880" opacity="1.000000" stroke="none" 
	d="
M514.222656,698.223328 
	C500.920654,702.744568 487.981750,703.410950 475.477753,697.254883 
	C462.343353,690.788452 456.329315,676.607788 459.400146,660.779053 
	C462.328552,645.684448 473.148315,635.462646 487.717834,634.026428 
	C509.506409,631.878540 523.460388,644.647156 523.043823,666.351624 
	C522.942322,671.641663 521.544067,673.062561 516.115112,673.078308 
	C503.154144,673.115967 490.192993,673.090454 477.217102,673.090454 
	C477.583496,680.416199 481.553192,685.000549 488.884155,687.044128 
	C496.096436,689.054565 503.085876,687.709656 510.028259,685.734497 
	C513.022339,684.882507 516.198975,682.911743 518.007507,687.366333 
	C520.093506,692.504272 519.029724,695.708618 514.222656,698.223328 
M504.340851,653.463257 
	C500.250671,647.310669 494.543335,645.171387 487.568085,647.176453 
	C481.124847,649.028625 477.275909,654.267090 476.897797,661.839355 
	C486.595795,661.839355 496.281555,661.839355 506.565460,661.839355 
	C505.869385,658.917419 505.300446,656.529053 504.340851,653.463257 
z"/>
<path fill="#08367F" opacity="1.000000" stroke="none" 
	d="
M341.949707,688.996948 
	C330.503174,671.058716 334.318024,649.120667 350.418304,638.902405 
	C364.570831,629.920288 385.386688,632.650391 396.100494,644.893921 
	C406.285431,656.533081 406.155975,678.314392 395.828247,690.698303 
	C383.318878,705.698242 355.845703,704.984802 341.949707,688.996948 
M373.769470,648.211304 
	C364.726318,647.074829 358.529999,649.755432 355.388824,656.692078 
	C352.061462,664.039978 352.119110,671.600830 355.585663,678.902588 
	C358.444611,684.924377 364.674133,688.229065 371.133209,687.631165 
	C377.846130,687.009766 383.482452,682.906250 384.668243,676.267517 
	C385.608826,671.001526 385.584106,665.376648 384.887726,660.055115 
	C384.130310,654.266968 380.377441,650.205688 373.769470,648.211304 
z"/>
<path fill="#0CAFCD" opacity="1.000000" stroke="none" 
	d="
M737.535400,687.774170 
	C743.853943,686.999390 749.785767,686.363708 755.626282,685.249451 
	C758.638672,684.674744 761.254333,683.961487 762.613037,687.640015 
	C764.409607,692.503845 763.427307,696.309326 759.738831,697.744324 
	C749.045166,701.904541 738.028931,702.943481 726.919250,699.925781 
	C710.839966,695.558289 702.018799,682.686584 703.098938,665.798096 
	C704.539612,643.272766 723.239136,629.478149 745.304504,634.566711 
	C762.473938,638.526245 768.352417,654.597717 766.982849,669.226929 
	C766.652771,672.752747 763.907837,673.070801 761.042175,673.061829 
	C749.380737,673.025391 737.719177,673.036926 726.057617,673.030945 
	C724.567810,673.030151 723.078003,673.030762 721.569824,673.030762 
	C722.346252,681.749268 726.285156,685.421570 737.535400,687.774170 
M737.365967,646.690247 
	C727.342529,646.937744 721.728638,652.207031 721.349915,661.836060 
	C730.913757,661.836060 740.468689,661.836060 749.989746,661.836060 
	C750.608154,652.775024 746.959778,648.228455 737.365967,646.690247 
z"/>
<path fill="#0C3880" opacity="1.000000" stroke="none" 
	d="
M578.763855,647.411987 
	C576.975830,650.613281 574.874939,650.363953 571.870300,649.668579 
	C565.970032,648.303284 559.865479,647.296326 553.841614,647.275757 
	C551.751526,647.268555 549.649963,650.619263 547.553650,652.436279 
	C549.276611,654.399841 550.630310,657.186157 552.797913,658.159180 
	C557.609314,660.319031 562.898743,661.381775 567.867798,663.229126 
	C579.275452,667.470215 583.805054,673.354431 583.169128,682.643372 
	C582.556946,691.584961 575.613892,698.548645 564.596069,700.713013 
	C554.231567,702.749084 544.037720,701.674316 534.208740,697.792847 
	C529.638550,695.988159 528.207764,691.580933 530.737122,686.687256 
	C532.740173,682.812012 535.839783,684.218567 538.916504,685.453735 
	C545.635132,688.151184 552.604980,690.216614 559.773865,687.891235 
	C562.098083,687.137268 565.185303,684.678284 565.419495,682.702332 
	C565.644714,680.802673 563.063171,677.687500 560.945068,676.584045 
	C557.020874,674.539612 552.492554,673.687500 548.297058,672.121338 
	C544.885620,670.847900 541.355713,669.638733 538.290466,667.736877 
	C527.625549,661.120117 526.954285,647.408997 536.922424,639.635498 
	C545.481384,632.960938 555.526489,633.277100 565.588257,634.370789 
	C567.716431,634.602051 569.817932,635.275513 571.875977,635.922485 
	C580.039734,638.488953 580.191895,638.769653 578.763855,647.411987 
z"/>
<path fill="#0C3880" opacity="1.000000" stroke="none" 
	d="
M417.132599,657.051758 
	C417.132050,654.245667 417.132050,651.930969 417.132050,649.737122 
	C413.349304,648.976257 409.635437,648.814941 406.583038,647.311035 
	C405.450104,646.752808 405.565369,643.037048 405.633545,640.777039 
	C405.882904,632.514343 412.920746,637.719238 417.210541,634.746948 
	C417.210541,630.984558 417.318573,626.393372 417.170898,621.810425 
	C417.079315,618.968140 418.227600,617.557800 420.986969,616.973938 
	C424.076172,616.320312 427.130859,615.445679 430.136261,614.469238 
	C433.581329,613.349976 434.732025,614.744507 434.693176,618.040649 
	C434.625000,623.825500 434.674164,629.611694 434.674164,635.913330 
	C439.735870,635.913330 444.365448,636.077332 448.977173,635.860901 
	C452.609100,635.690491 453.796783,637.508545 453.640320,640.682190 
	C453.476562,644.002686 454.662323,648.337463 449.353424,648.683167 
	C444.587463,648.993591 439.785278,648.748657 434.616241,648.748657 
	C434.616241,659.408081 434.292938,669.370483 434.731873,679.299194 
	C435.016174,685.729614 438.655579,688.094543 445.787720,687.796082 
	C452.806458,687.502380 454.972046,690.132385 453.034058,697.008057 
	C452.706482,698.170227 451.272156,699.545410 450.100647,699.842712 
	C447.057190,700.614990 443.888336,701.065857 440.746490,701.248779 
	C424.679260,702.184509 417.191711,695.119934 417.102051,679.038757 
	C417.062073,671.873840 417.119781,664.708435 417.132599,657.051758 
z"/>
<path fill="#365390" opacity="1.000000" stroke="none" 
	d="
M336.238403,291.853088 
	C331.906189,304.555573 334.023621,317.938263 333.980316,331.098907 
	C333.767853,395.700317 333.886566,460.302795 333.868866,524.904907 
	C333.868347,526.718628 333.649384,528.532410 333.278564,530.669678 
	C332.740479,528.539673 332.209137,526.086182 332.207703,523.632507 
	C332.164795,450.847168 332.108551,378.061615 332.338043,305.277008 
	C332.351929,300.864166 334.703033,296.458679 336.238403,291.853088 
z"/>
<path fill="#365390" opacity="1.000000" stroke="none" 
	d="
M324.315002,699.637939 
	C324.015594,671.087097 324.106201,642.405518 324.050751,613.724182 
	C324.047638,612.114563 322.840942,610.507324 322.076599,608.540039 
	C325.834869,607.542664 325.912354,610.149719 325.906647,612.813049 
	C325.881989,624.311401 325.839203,635.809753 325.827667,647.308105 
	C325.812073,662.805786 325.858337,678.303650 325.766052,693.800781 
	C325.754669,695.705017 325.054535,697.605103 324.315002,699.637939 
z"/>
<path fill="#365390" opacity="1.000000" stroke="none" 
	d="
M244.425995,608.813965 
	C244.861572,638.764282 244.905121,668.859253 244.985291,699.413269 
	C244.368622,698.554565 243.150345,697.238953 243.145203,695.918640 
	C243.036316,667.993347 243.053452,640.067444 243.106003,612.141785 
	C243.108017,611.080078 243.710999,610.019592 244.425995,608.813965 
z"/>
<path fill="#365390" opacity="1.000000" stroke="none" 
	d="
M256.312439,700.105591 
	C259.423370,699.170898 260.260559,697.025269 260.221710,693.563110 
	C260.025665,676.089539 260.113220,658.612549 260.151306,641.136963 
	C260.155487,639.213196 260.479340,637.290039 261.848572,634.841858 
	C262.811584,636.085571 263.774567,637.329346 264.682220,638.936462 
	C263.881042,638.492676 263.135223,637.685486 261.836884,636.280334 
	C261.836884,639.689331 261.835083,642.385498 261.837189,645.081665 
	C261.850098,661.647217 261.791962,678.213440 261.930573,694.777954 
	C261.963104,698.660706 261.024719,700.956604 256.312439,700.105591 
z"/>
<path fill="#365390" opacity="1.000000" stroke="none" 
	d="
M309.659637,608.203369 
	C309.654633,610.631470 308.944763,613.055359 308.931213,615.483032 
	C308.835907,632.579773 308.890747,649.677368 308.874146,666.774658 
	C308.872711,668.257324 309.011536,669.848328 308.538361,671.197205 
	C307.819427,673.246521 306.550751,673.739014 305.394318,671.018311 
	C306.052673,669.633240 307.173950,668.620972 307.178467,667.603699 
	C307.258057,649.660706 307.139679,631.716614 307.266754,613.774231 
	C307.279907,611.911804 308.576141,610.058411 309.659637,608.203369 
z"/>
<path fill="#365390" opacity="1.000000" stroke="none" 
	d="
M341.987549,287.463562 
	C340.412109,289.012177 338.842010,290.285400 336.939178,291.556885 
	C338.193176,289.777466 339.779938,287.999817 341.686798,286.150299 
	C342.002258,286.448334 341.997589,286.818268 341.987549,287.463562 
z"/>
<path fill="#365390" opacity="1.000000" stroke="none" 
	d="
M264.334839,611.078491 
	C262.998901,610.527649 261.558350,609.665771 260.040649,608.486511 
	C261.385742,609.035278 262.807983,609.901367 264.334839,611.078491 
z"/>
<path fill="#365390" opacity="1.000000" stroke="none" 
	d="
M271.353516,621.151611 
	C270.730896,620.734680 270.028961,620.039795 269.414429,618.997559 
	C270.092621,619.391357 270.683441,620.132568 271.353516,621.151611 
z"/>
<path fill="#365390" opacity="1.000000" stroke="none" 
	d="
M269.332062,618.254028 
	C268.704254,617.808594 268.012146,617.073242 267.410126,615.993347 
	C268.089417,616.420593 268.678589,617.192322 269.332062,618.254028 
z"/>
<path fill="#365390" opacity="1.000000" stroke="none" 
	d="
M267.321136,615.252197 
	C266.678650,614.833069 265.961151,614.121582 265.290710,613.062256 
	C265.973877,613.462830 266.610016,614.211365 267.321136,615.252197 
z"/>
<path fill="#1957AD" opacity="1.000000" stroke="none" 
	d="
M441.517334,432.544800 
	C441.277313,432.095276 441.183258,431.320068 441.227203,430.345215 
	C441.464600,430.836761 441.563965,431.527954 441.517334,432.544800 
z"/>
<path fill="#365390" opacity="1.000000" stroke="none" 
	d="
M305.332581,670.307373 
	C304.866028,670.114319 304.353699,669.661621 304.053528,669.069824 
	C304.606049,669.303040 304.946442,669.675354 305.332581,670.307373 
z"/>
<path fill="#1957AD" opacity="1.000000" stroke="none" 
	d="
M441.164490,490.896851 
	C440.923889,490.824066 440.904663,490.628357 441.072510,490.300415 
	C441.371216,490.344849 441.413330,490.546783 441.164490,490.896851 
z"/>
<path fill="#365390" opacity="1.000000" stroke="none" 
	d="
M272.270264,622.589600 
	C272.039642,622.614868 271.775269,622.402893 271.562866,621.925415 
	C271.934937,621.789429 272.142181,622.020264 272.270264,622.589600 
z"/>
<path fill="#365390" opacity="1.000000" stroke="none" 
	d="
M264.683044,639.548767 
	C265.067108,639.285339 265.296875,639.432251 265.265015,640.014648 
	C264.912811,640.132263 264.754608,639.968628 264.683044,639.548767 
z"/>
<path fill="#365390" opacity="1.000000" stroke="none" 
	d="
M265.734985,640.948975 
	C265.827942,640.931519 265.934113,640.904663 265.872986,640.918274 
	C265.705627,640.958740 265.748230,640.939636 265.734985,640.948975 
z"/>
<path fill="#365390" opacity="1.000000" stroke="none" 
	d="
M265.278320,612.455383 
	C264.898132,612.714905 264.644104,612.547852 264.601501,611.924683 
	C264.962128,611.772034 265.159302,611.958740 265.278320,612.455383 
z"/>
<path fill="#FAFBFC" opacity="1.000000" stroke="none" 
	d="
M504.536163,653.801941 
	C505.300446,656.529053 505.869385,658.917419 506.565460,661.839355 
	C496.281555,661.839355 486.595795,661.839355 476.897797,661.839355 
	C477.275909,654.267090 481.124847,649.028625 487.568085,647.176453 
	C494.543335,645.171387 500.250671,647.310669 504.536163,653.801941 
z"/>
<path fill="#FAFBFC" opacity="1.000000" stroke="none" 
	d="
M374.165100,648.325928 
	C380.377441,650.205688 384.130310,654.266968 384.887726,660.055115 
	C385.584106,665.376648 385.608826,671.001526 384.668243,676.267517 
	C383.482452,682.906250 377.846130,687.009766 371.133209,687.631165 
	C364.674133,688.229065 358.444611,684.924377 355.585663,678.902588 
	C352.119110,671.600830 352.061462,664.039978 355.388824,656.692078 
	C358.529999,649.755432 364.726318,647.074829 374.165100,648.325928 
z"/>
<path fill="#FAFBFC" opacity="1.000000" stroke="none" 
	d="
M737.800781,646.720947 
	C746.959778,648.228455 750.608154,652.775024 749.989746,661.836060 
	C740.468689,661.836060 730.913757,661.836060 721.349915,661.836060 
	C721.728638,652.207031 727.342529,646.937744 737.800781,646.720947 
z"/>
</svg>